<svg width="110" height="28" viewBox="0 0 110 28" fill="none" xmlns="http://www.w3.org/2000/svg">
<path d="M15.3956 6.89781V2.73781H20.5512V0.0355835H25.0312V13.6178H20.5512V6.89781H15.3956ZM8.88893 8.78225C7.86967 10.1808 6.58967 11.3067 5.04893 12.16C3.53189 13.0134 1.84893 13.523 3.91006e-05 13.6889V9.52892C1.42226 9.31558 2.66671 8.78225 3.73337 7.92892C4.80004 7.07558 5.62967 5.97336 6.22226 4.62225C6.81485 3.27114 7.123 1.78966 7.14671 0.177805L11.6978 0.46225C11.6978 2.16892 11.4015 3.81632 10.8089 5.40447L17.9556 10.0623L15.68 13.3334L8.88893 8.78225ZM25.4223 27.2356H2.16893V19.52H20.5867V18.0267H2.13337V14.72H25.0312V22.4356H6.64893V23.9645H25.4223V27.2356ZM41.063 10.0267C39.5222 12.3023 37.6733 14.0919 35.5163 15.3956C33.3593 16.6993 31.0837 17.363 28.6896 17.3867V12.9067C30.4437 12.9067 32.1267 12.3497 33.7385 11.2356C35.3504 10.0978 36.7133 8.55707 37.8274 6.61336C38.9415 4.64595 39.6644 2.44151 39.9963 2.86102e-05L44.583 0.746695C44.2985 2.66669 43.777 4.52743 43.0185 6.32892L54.2185 13.6889L51.8363 17.4934L41.063 10.0267ZM54.3607 21.8667V26.2756H28.1918V21.8667H54.3607ZM81.3437 27.3423H76.8637V14.8623H72.8103V10.4534H76.8637V0.0355835H81.3437V27.3423ZM67.5125 21.6178C68.7214 21.6178 69.9422 21.4993 71.1748 21.2623C72.4074 21.0252 73.4266 20.7052 74.2325 20.3023V24.64C73.4503 25.0667 72.4548 25.3985 71.2459 25.6356C70.037 25.8489 68.7925 25.9556 67.5125 25.9556H57.4859V0.782249H72.4192V5.12003H61.9659V11.0934H71.1037V15.3956H61.9659V21.6178H67.5125ZM104.842 27.3423V0.0355835H109.358V27.3423H104.842ZM90.2999 5.08447V21.6534H96.4866C97.7192 21.6534 98.9399 21.5348 100.149 21.2978C101.381 21.0608 102.401 20.7526 103.207 20.3734V24.64C102.424 25.043 101.393 25.363 100.113 25.6C98.8569 25.8371 97.5888 25.9556 96.3088 25.9556H85.7843V0.782249H101.144V5.08447H90.2999Z" fill="#2AA971"/>
</svg>
