<svg width="69" height="18" viewBox="0 0 69 18" fill="none" xmlns="http://www.w3.org/2000/svg">
<path d="M9.62213 4.31112V1.71112H12.8443V0.0222321H15.6443V8.51112H12.8443V4.31112H9.62213ZM5.55546 5.4889C4.91842 6.36297 4.11842 7.06668 3.15546 7.60001C2.20731 8.13334 1.15546 8.45186 -9.76324e-05 8.55557V5.95557C0.888791 5.82223 1.66657 5.4889 2.33324 4.95557C2.9999 4.42223 3.51842 3.73334 3.88879 2.8889C4.25916 2.04445 4.45175 1.11853 4.46657 0.11112L7.31101 0.288898C7.31101 1.35556 7.12583 2.38519 6.75546 3.37779L11.2221 6.2889L9.7999 8.33334L5.55546 5.4889ZM15.8888 17.0222H1.35546V12.2H12.8666V11.2667H1.33324V9.20001H15.6443V14.0222H4.15546V14.9778H15.8888V17.0222ZM25.6642 6.26668C24.7013 7.6889 23.5457 8.80742 22.1976 9.62223C20.8494 10.437 19.4272 10.8519 17.9309 10.8667V8.06668C19.0272 8.06668 20.079 7.71853 21.0864 7.02223C22.0939 6.31112 22.9457 5.34816 23.642 4.13334C24.3383 2.90371 24.7902 1.52594 24.9976 1.0252e-05L27.8642 0.466676C27.6864 1.66668 27.3605 2.82964 26.8864 3.95557L33.8864 8.55557L32.3976 10.9333L25.6642 6.26668ZM33.9753 13.6667V16.4222H17.6198V13.6667H33.9753ZM50.8397 17.0889H48.0397V9.2889H45.5063V6.53334H48.0397V0.0222321H50.8397V17.0889ZM42.1952 13.5111C42.9508 13.5111 43.7137 13.437 44.4841 13.2889C45.2545 13.1408 45.8915 12.9408 46.3952 12.6889V15.4C45.9063 15.6667 45.2841 15.8741 44.5285 16.0222C43.773 16.1556 42.9952 16.2222 42.1952 16.2222H35.9285V0.488898H45.2619V3.20001H38.7285V6.93334H44.4397V9.62223H38.7285V13.5111H42.1952ZM65.5262 17.0889V0.0222321H68.3484V17.0889H65.5262ZM56.4373 3.17779V13.5333H60.304C61.0744 13.5333 61.8373 13.4593 62.5929 13.3111C63.3632 13.163 64.0003 12.9704 64.504 12.7333V15.4C64.0151 15.6519 63.3706 15.8519 62.5706 16C61.7855 16.1482 60.9929 16.2222 60.1929 16.2222H53.6151V0.488898H63.2151V3.17779H56.4373Z" fill="#2AA971"/>
</svg>
