<svg width="24" height="24" viewBox="0 0 24 24" fill="none" xmlns="http://www.w3.org/2000/svg">
<path d="M18 9C18 7.4087 17.3679 5.88258 16.2426 4.75736C15.1174 3.63214 13.5913 3 12 3C10.4087 3 8.88258 3.63214 7.75736 4.75736C6.63214 5.88258 6 7.4087 6 9C6 16 4 18 4 18H20C20 18 18 16 18 9Z" stroke="#111111" stroke-linecap="round"/>
<path d="M16 18C15.5935 18.9125 15.01 19.6699 14.308 20.1964C13.606 20.7229 12.8101 21 12 21C11.1899 21 10.394 20.7229 9.69196 20.1964C8.98996 19.6699 8.4065 18.9125 8 18" stroke="#111111" stroke-linejoin="round"/>
</svg>
